<svg width="14" height="14" viewBox="0 0 14 14" fill="none" xmlns="http://www.w3.org/2000/svg">
<path d="M12.3025 4.07167C11.8067 3.52333 10.9783 3.24917 9.77668 3.24917H9.63668V3.22583C9.63668 2.24583 9.63668 1.0325 7.44334 1.0325H6.55668C4.36334 1.0325 4.36334 2.25167 4.36334 3.22583V3.255H4.22334C3.01584 3.255 2.19335 3.52917 1.69751 4.0775C1.12001 4.71917 1.13751 5.5825 1.19584 6.17167L1.20168 6.2125L1.23747 6.58828C1.25173 6.73806 1.33248 6.87356 1.45875 6.95535C1.59635 7.04448 1.77479 7.15766 1.89001 7.22167C1.97168 7.27417 2.05918 7.32083 2.14668 7.3675C3.14418 7.91583 4.24084 8.28333 5.35501 8.46417C5.40751 9.0125 5.64668 9.65417 6.92418 9.65417C8.20168 9.65417 8.45251 9.01833 8.49334 8.4525C9.68334 8.26 10.8325 7.84583 11.8708 7.23917C11.9058 7.22167 11.9292 7.20417 11.9583 7.18667C12.166 7.06931 12.3806 6.92751 12.5806 6.78559C12.6904 6.70762 12.7601 6.58555 12.775 6.45167V6.45167L12.8042 6.1775C12.81 6.1425 12.81 6.11333 12.8158 6.0725C12.8625 5.48333 12.8508 4.67833 12.3025 4.07167ZM7.63584 8.0675C7.63584 8.68583 7.63584 8.77917 6.91834 8.77917C6.20084 8.77917 6.20084 8.66833 6.20084 8.07333V7.33833H7.63584V8.0675ZM5.19751 3.24917V3.22583C5.19751 2.23417 5.19751 1.86667 6.55668 1.86667H7.44334C8.80251 1.86667 8.80251 2.24 8.80251 3.22583V3.255H5.19751V3.24917Z" fill="#F478B8"/>
<path d="M11.838 8.17058C12.1932 8.00568 12.601 8.28659 12.5656 8.67657L12.39 10.6108C12.2675 11.7775 11.7892 12.9675 9.22249 12.9675H4.77749C2.21082 12.9675 1.73249 11.7775 1.60999 10.6167L1.44428 8.79384C1.40924 8.40838 1.80749 8.12779 2.16155 8.28416C2.81221 8.57154 3.72607 8.9543 4.36843 9.138C4.53174 9.1847 4.66361 9.30351 4.74436 9.45294C5.11817 10.1447 5.8659 10.5117 6.92416 10.5117C7.97209 10.5117 8.72823 10.1304 9.10379 9.43564C9.18463 9.2861 9.31674 9.16736 9.48007 9.12021C10.1665 8.92203 11.1498 8.4901 11.838 8.17058Z" fill="#F478B8"/>
</svg>
