<svg width="24" height="24" viewBox="0 0 24 24" fill="none" xmlns="http://www.w3.org/2000/svg">
<path d="M14.236 5.292C14.236 4.772 14.236 4.512 14.179 4.299C14.1026 4.01474 13.9528 3.75556 13.7446 3.54741C13.5365 3.33926 13.2773 3.18946 12.993 3.113C12.431 2.963 11.569 2.963 11.007 3.113C10.7226 3.18931 10.4632 3.33904 10.2548 3.5472C10.0465 3.75536 9.89655 4.01462 9.82001 4.299C9.76301 4.512 9.76301 4.772 9.76301 5.292C9.76301 6.346 9.76301 9.109 9.43501 9.436C9.10801 9.764 6.34501 9.764 5.29101 9.764C4.77101 9.764 4.51101 9.764 4.29801 9.821C4.01375 9.89746 3.75456 10.0473 3.54642 10.2554C3.33827 10.4636 3.18847 10.7227 3.11201 11.007C2.96201 11.569 2.96201 12.432 3.11201 12.993C3.26701 13.572 3.71901 14.023 4.29801 14.179C4.51101 14.236 4.77101 14.236 5.29101 14.236C6.34501 14.236 9.10801 14.236 9.43501 14.563C9.76301 14.891 9.76301 15.418 9.76301 16.473C9.76301 16.992 9.76301 19.488 9.82001 19.701C9.89647 19.9853 10.0463 20.2445 10.2544 20.4526C10.4626 20.6607 10.7217 20.8105 11.006 20.887C11.568 21.037 12.431 21.037 12.992 20.887C13.2763 20.8105 13.5355 20.6607 13.7436 20.4526C13.9518 20.2445 14.1016 19.9853 14.178 19.701C14.235 19.488 14.235 16.992 14.235 16.472C14.235 15.418 14.235 14.891 14.562 14.563C14.89 14.236 17.653 14.236 18.707 14.236C19.227 14.236 19.487 14.236 19.7 14.179C19.9843 14.1025 20.2435 13.9527 20.4516 13.7446C20.6598 13.5365 20.8096 13.2773 20.886 12.993C21.036 12.431 21.036 11.569 20.886 11.007C20.8096 10.7227 20.6598 10.4636 20.4516 10.2554C20.2435 10.0473 19.9843 9.89746 19.7 9.821C19.487 9.764 19.227 9.764 18.707 9.764C17.653 9.764 14.89 9.764 14.563 9.436C14.235 9.109 14.235 6.346 14.235 5.292" stroke="white" stroke-width="1.5" stroke-linecap="round" stroke-linejoin="round"/>
</svg>
